<svg width="168" height="32" viewBox="0 0 168 32" fill="none" xmlns="http://www.w3.org/2000/svg">
<rect width="168" height="32" fill="white"/>
<rect width="34" height="32" fill="#3F8657"/>
<rect y="16.3903" width="34" height="15.6098" fill="#CBCD3A"/>
<path d="M50.3395 13.4531C50.2732 12.8329 49.9938 12.3499 49.5014 12.0043C49.0137 11.6586 48.3793 11.4858 47.598 11.4858C47.0488 11.4858 46.5777 11.5687 46.1847 11.7344C45.7917 11.9001 45.491 12.125 45.2827 12.4091C45.0743 12.6932 44.9678 13.0175 44.9631 13.3821C44.9631 13.6851 45.0317 13.9479 45.169 14.1705C45.3111 14.393 45.5028 14.5824 45.7443 14.7386C45.9858 14.8902 46.2533 15.018 46.5469 15.1222C46.8404 15.2263 47.1364 15.3139 47.4347 15.3849L48.7983 15.7259C49.3475 15.8537 49.8755 16.0265 50.3821 16.2443C50.8935 16.4621 51.3504 16.7367 51.7528 17.0682C52.16 17.3996 52.482 17.7997 52.7188 18.2685C52.9555 18.7372 53.0739 19.2865 53.0739 19.9162C53.0739 20.7685 52.8561 21.5189 52.4205 22.1676C51.9848 22.8116 51.3551 23.3158 50.5312 23.6804C49.7121 24.0402 48.7202 24.2202 47.5554 24.2202C46.4238 24.2202 45.4413 24.045 44.608 23.6946C43.7794 23.3442 43.1307 22.8329 42.6619 22.1605C42.1979 21.4882 41.947 20.669 41.9091 19.7031H44.5014C44.5393 20.2098 44.6955 20.6312 44.9702 20.9673C45.2448 21.3035 45.6023 21.5545 46.0426 21.7202C46.4877 21.8859 46.9848 21.9688 47.5341 21.9688C48.107 21.9688 48.6089 21.8835 49.0398 21.7131C49.4754 21.5379 49.8163 21.2964 50.0625 20.9886C50.3087 20.6761 50.4342 20.3116 50.4389 19.8949C50.4342 19.5161 50.3229 19.2036 50.1051 18.9574C49.8873 18.7064 49.5819 18.4981 49.1889 18.3324C48.8007 18.1619 48.3461 18.0104 47.8253 17.8778L46.1705 17.4517C44.9725 17.1439 44.0256 16.6776 43.3295 16.0526C42.6383 15.4228 42.2926 14.5871 42.2926 13.5455C42.2926 12.6884 42.5246 11.938 42.9886 11.294C43.4574 10.6501 44.0942 10.1506 44.8991 9.79545C45.7041 9.43561 46.6155 9.25568 47.6335 9.25568C48.6657 9.25568 49.5701 9.43561 50.3466 9.79545C51.1278 10.1506 51.741 10.6454 52.1861 11.2798C52.6312 11.9096 52.8608 12.634 52.875 13.4531H50.3395ZM60.1388 24.2131C59.0451 24.2131 58.1005 23.9858 57.305 23.5312C56.5143 23.072 55.9059 22.4233 55.4798 21.5852C55.0536 20.7424 54.8406 19.7505 54.8406 18.6094C54.8406 17.4872 55.0536 16.5024 55.4798 15.6548C55.9106 14.8026 56.512 14.1397 57.2837 13.6662C58.0555 13.188 58.9622 12.9489 60.0039 12.9489C60.6763 12.9489 61.3107 13.0578 61.9073 13.2756C62.5086 13.4886 63.0389 13.8201 63.4982 14.2699C63.9622 14.7197 64.3268 15.2926 64.592 15.9886C64.8571 16.6799 64.9897 17.5038 64.9897 18.4602V19.2486H56.0479V17.5156H62.5252C62.5205 17.0232 62.4139 16.5852 62.2056 16.2017C61.9973 15.8134 61.7061 15.508 61.332 15.2855C60.9627 15.063 60.5318 14.9517 60.0394 14.9517C59.5138 14.9517 59.0522 15.0795 58.6545 15.3352C58.2567 15.5862 57.9466 15.9176 57.7241 16.3295C57.5063 16.7367 57.395 17.1842 57.3903 17.6719V19.1847C57.3903 19.8191 57.5063 20.3636 57.7383 20.8182C57.9703 21.268 58.2946 21.6136 58.7113 21.8551C59.128 22.0919 59.6156 22.2102 60.1744 22.2102C60.5484 22.2102 60.887 22.1581 61.19 22.054C61.493 21.9451 61.7558 21.7865 61.9783 21.5781C62.2009 21.3698 62.369 21.1117 62.4826 20.804L64.8832 21.0739C64.7317 21.7083 64.4428 22.2623 64.0167 22.7358C63.5953 23.2045 63.0555 23.5691 62.3974 23.8295C61.7392 24.0852 60.9864 24.2131 60.1388 24.2131ZM71.2131 24.1918C70.3561 24.1918 69.589 23.9716 68.9119 23.5312C68.2348 23.0909 67.6998 22.4517 67.3068 21.6136C66.9138 20.7756 66.7173 19.7576 66.7173 18.5597C66.7173 17.3475 66.9162 16.3248 67.3139 15.4915C67.7164 14.6534 68.2585 14.0213 68.9403 13.5952C69.6222 13.1643 70.3821 12.9489 71.2202 12.9489C71.8594 12.9489 72.3849 13.0578 72.7969 13.2756C73.2088 13.4886 73.5355 13.7467 73.777 14.0497C74.0185 14.348 74.2055 14.6297 74.3381 14.8949H74.4446V9.45455H77.0227V24H74.4943V22.2812H74.3381C74.2055 22.5464 74.0137 22.8281 73.7628 23.1264C73.5118 23.42 73.1804 23.6709 72.7685 23.8793C72.3565 24.0876 71.8381 24.1918 71.2131 24.1918ZM71.9304 22.0824C72.4749 22.0824 72.9389 21.9356 73.3224 21.642C73.706 21.3437 73.9972 20.9295 74.196 20.3991C74.3949 19.8688 74.4943 19.2509 74.4943 18.5455C74.4943 17.84 74.3949 17.2268 74.196 16.706C74.0019 16.1851 73.7131 15.7803 73.3295 15.4915C72.9508 15.2027 72.4844 15.0582 71.9304 15.0582C71.3575 15.0582 70.8793 15.2074 70.4957 15.5057C70.1122 15.804 69.8234 16.2159 69.6293 16.7415C69.4351 17.267 69.3381 17.8684 69.3381 18.5455C69.3381 19.2273 69.4351 19.8357 69.6293 20.3707C69.8281 20.901 70.1193 21.3201 70.5028 21.6278C70.8911 21.9309 71.367 22.0824 71.9304 22.0824ZM82.9016 24.2202C82.2103 24.2202 81.5877 24.0971 81.0337 23.8509C80.4845 23.5999 80.0489 23.2306 79.7269 22.7429C79.4097 22.2552 79.2511 21.6539 79.2511 20.9389C79.2511 20.3234 79.3647 19.8144 79.592 19.4119C79.8192 19.0095 80.1294 18.6875 80.5224 18.446C80.9154 18.2045 81.3581 18.0223 81.8505 17.8991C82.3477 17.7713 82.8614 17.679 83.3917 17.6222C84.0309 17.5559 84.5494 17.4967 84.9471 17.4446C85.3448 17.3878 85.6336 17.3026 85.8136 17.1889C85.9982 17.0705 86.0906 16.8883 86.0906 16.642V16.5994C86.0906 16.0644 85.9319 15.6501 85.6147 15.3565C85.2975 15.063 84.8406 14.9162 84.244 14.9162C83.6142 14.9162 83.1147 15.0535 82.7454 15.3281C82.3808 15.6027 82.1346 15.9271 82.0067 16.3011L79.6062 15.9602C79.7956 15.2973 80.1081 14.7434 80.5437 14.2983C80.9793 13.8485 81.512 13.5123 82.1417 13.2898C82.7714 13.0625 83.4674 12.9489 84.2298 12.9489C84.7553 12.9489 85.2785 13.0104 85.7994 13.1335C86.3202 13.2566 86.796 13.4602 87.2269 13.7443C87.6578 14.0237 88.0034 14.4048 88.2638 14.8878C88.529 15.3707 88.6616 15.9744 88.6616 16.6989V24H86.19V22.5014H86.1048C85.9485 22.8045 85.7283 23.0885 85.4442 23.3537C85.1649 23.6141 84.8121 23.8248 84.386 23.9858C83.9646 24.142 83.4698 24.2202 82.9016 24.2202ZM83.5692 22.331C84.0853 22.331 84.5328 22.2292 84.9116 22.0256C85.2904 21.8172 85.5816 21.5426 85.7852 21.2017C85.9935 20.8608 86.0977 20.4891 86.0977 20.0866V18.8011C86.0172 18.8674 85.8799 18.929 85.6857 18.9858C85.4963 19.0426 85.2833 19.0923 85.0465 19.1349C84.8098 19.1776 84.5754 19.2154 84.3434 19.2486C84.1114 19.2817 83.9102 19.3101 83.7397 19.3338C83.3562 19.3859 83.0129 19.4711 82.7099 19.5895C82.4068 19.7079 82.1677 19.8736 81.9925 20.0866C81.8174 20.295 81.7298 20.5649 81.7298 20.8963C81.7298 21.3698 81.9026 21.7273 82.2482 21.9688C82.5939 22.2102 83.0342 22.331 83.5692 22.331ZM96.3214 24V9.45455H101.776C102.893 9.45455 103.831 9.66288 104.588 10.0795C105.351 10.4962 105.926 11.0691 106.314 11.7983C106.707 12.5227 106.904 13.3466 106.904 14.2699C106.904 15.2027 106.707 16.0312 106.314 16.7557C105.921 17.4801 105.341 18.0507 104.574 18.4673C103.807 18.8793 102.863 19.0852 101.74 19.0852H98.1254V16.919H101.385C102.039 16.919 102.574 16.8054 102.99 16.5781C103.407 16.3509 103.715 16.0384 103.914 15.6406C104.117 15.2429 104.219 14.786 104.219 14.2699C104.219 13.7538 104.117 13.2992 103.914 12.9062C103.715 12.5133 103.405 12.2079 102.983 11.9901C102.567 11.7675 102.029 11.6562 101.371 11.6562H98.9563V24H96.3214ZM112.023 24.2202C111.331 24.2202 110.709 24.0971 110.155 23.8509C109.606 23.5999 109.17 23.2306 108.848 22.7429C108.531 22.2552 108.372 21.6539 108.372 20.9389C108.372 20.3234 108.486 19.8144 108.713 19.4119C108.94 19.0095 109.25 18.6875 109.643 18.446C110.036 18.2045 110.479 18.0223 110.972 17.8991C111.469 17.7713 111.982 17.679 112.513 17.6222C113.152 17.5559 113.67 17.4967 114.068 17.4446C114.466 17.3878 114.755 17.3026 114.935 17.1889C115.119 17.0705 115.212 16.8883 115.212 16.642V16.5994C115.212 16.0644 115.053 15.6501 114.736 15.3565C114.419 15.063 113.962 14.9162 113.365 14.9162C112.735 14.9162 112.236 15.0535 111.866 15.3281C111.502 15.6027 111.256 15.9271 111.128 16.3011L108.727 15.9602C108.917 15.2973 109.229 14.7434 109.665 14.2983C110.1 13.8485 110.633 13.5123 111.263 13.2898C111.893 13.0625 112.589 12.9489 113.351 12.9489C113.876 12.9489 114.4 13.0104 114.92 13.1335C115.441 13.2566 115.917 13.4602 116.348 13.7443C116.779 14.0237 117.125 14.4048 117.385 14.8878C117.65 15.3707 117.783 15.9744 117.783 16.6989V24H115.311V22.5014H115.226C115.07 22.8045 114.849 23.0885 114.565 23.3537C114.286 23.6141 113.933 23.8248 113.507 23.9858C113.086 24.142 112.591 24.2202 112.023 24.2202ZM112.69 22.331C113.206 22.331 113.654 22.2292 114.033 22.0256C114.411 21.8172 114.703 21.5426 114.906 21.2017C115.115 20.8608 115.219 20.4891 115.219 20.0866V18.8011C115.138 18.8674 115.001 18.929 114.807 18.9858C114.617 19.0426 114.404 19.0923 114.168 19.1349C113.931 19.1776 113.696 19.2154 113.464 19.2486C113.232 19.2817 113.031 19.3101 112.861 19.3338C112.477 19.3859 112.134 19.4711 111.831 19.5895C111.528 19.7079 111.289 19.8736 111.114 20.0866C110.938 20.295 110.851 20.5649 110.851 20.8963C110.851 21.3698 111.024 21.7273 111.369 21.9688C111.715 22.2102 112.155 22.331 112.69 22.331ZM120.368 24V13.0909H122.861V14.9091H122.974C123.173 14.2794 123.514 13.794 123.997 13.4531C124.485 13.1075 125.041 12.9347 125.666 12.9347C125.808 12.9347 125.967 12.9418 126.142 12.956C126.322 12.9654 126.471 12.982 126.589 13.0057V15.3707C126.481 15.3329 126.308 15.2997 126.071 15.2713C125.839 15.2382 125.614 15.2216 125.396 15.2216C124.928 15.2216 124.506 15.3234 124.132 15.527C123.763 15.7259 123.472 16.0028 123.259 16.358C123.045 16.7131 122.939 17.1226 122.939 17.5866V24H120.368ZM131.241 24.2202C130.55 24.2202 129.928 24.0971 129.374 23.8509C128.824 23.5999 128.389 23.2306 128.067 22.7429C127.75 22.2552 127.591 21.6539 127.591 20.9389C127.591 20.3234 127.705 19.8144 127.932 19.4119C128.159 19.0095 128.469 18.6875 128.862 18.446C129.255 18.2045 129.698 18.0223 130.19 17.8991C130.688 17.7713 131.201 17.679 131.732 17.6222C132.371 17.5559 132.889 17.4967 133.287 17.4446C133.685 17.3878 133.973 17.3026 134.153 17.1889C134.338 17.0705 134.43 16.8883 134.43 16.642V16.5994C134.43 16.0644 134.272 15.6501 133.955 15.3565C133.637 15.063 133.18 14.9162 132.584 14.9162C131.954 14.9162 131.455 15.0535 131.085 15.3281C130.721 15.6027 130.474 15.9271 130.347 16.3011L127.946 15.9602C128.135 15.2973 128.448 14.7434 128.884 14.2983C129.319 13.8485 129.852 13.5123 130.482 13.2898C131.111 13.0625 131.807 12.9489 132.57 12.9489C133.095 12.9489 133.618 13.0104 134.139 13.1335C134.66 13.2566 135.136 13.4602 135.567 13.7443C135.998 14.0237 136.343 14.4048 136.604 14.8878C136.869 15.3707 137.001 15.9744 137.001 16.6989V24H134.53V22.5014H134.445C134.288 22.8045 134.068 23.0885 133.784 23.3537C133.505 23.6141 133.152 23.8248 132.726 23.9858C132.304 24.142 131.81 24.2202 131.241 24.2202ZM131.909 22.331C132.425 22.331 132.873 22.2292 133.251 22.0256C133.63 21.8172 133.921 21.5426 134.125 21.2017C134.333 20.8608 134.438 20.4891 134.438 20.0866V18.8011C134.357 18.8674 134.22 18.929 134.026 18.9858C133.836 19.0426 133.623 19.0923 133.386 19.1349C133.15 19.1776 132.915 19.2154 132.683 19.2486C132.451 19.2817 132.25 19.3101 132.08 19.3338C131.696 19.3859 131.353 19.4711 131.05 19.5895C130.747 19.7079 130.508 19.8736 130.332 20.0866C130.157 20.295 130.07 20.5649 130.07 20.8963C130.07 21.3698 130.242 21.7273 130.588 21.9688C130.934 22.2102 131.374 22.331 131.909 22.331ZM142.158 17.608V24H139.587V13.0909H142.044V14.9446H142.172C142.423 14.3338 142.823 13.8485 143.372 13.4886C143.926 13.1288 144.61 12.9489 145.425 12.9489C146.178 12.9489 146.833 13.1098 147.392 13.4318C147.955 13.7538 148.391 14.2202 148.699 14.831C149.011 15.4418 149.165 16.1828 149.161 17.054V24H146.589V17.4517C146.589 16.7225 146.4 16.152 146.021 15.7401C145.647 15.3281 145.129 15.1222 144.466 15.1222C144.016 15.1222 143.616 15.2216 143.266 15.4205C142.92 15.6146 142.648 15.8963 142.449 16.2656C142.255 16.6349 142.158 17.0824 142.158 17.608ZM154.913 24.2202C154.222 24.2202 153.599 24.0971 153.045 23.8509C152.496 23.5999 152.061 23.2306 151.739 22.7429C151.421 22.2552 151.263 21.6539 151.263 20.9389C151.263 20.3234 151.376 19.8144 151.604 19.4119C151.831 19.0095 152.141 18.6875 152.534 18.446C152.927 18.2045 153.37 18.0223 153.862 17.8991C154.359 17.7713 154.873 17.679 155.403 17.6222C156.043 17.5559 156.561 17.4967 156.959 17.4446C157.357 17.3878 157.645 17.3026 157.825 17.1889C158.01 17.0705 158.102 16.8883 158.102 16.642V16.5994C158.102 16.0644 157.944 15.6501 157.626 15.3565C157.309 15.063 156.852 14.9162 156.256 14.9162C155.626 14.9162 155.126 15.0535 154.757 15.3281C154.393 15.6027 154.146 15.9271 154.018 16.3011L151.618 15.9602C151.807 15.2973 152.12 14.7434 152.555 14.2983C152.991 13.8485 153.524 13.5123 154.153 13.2898C154.783 13.0625 155.479 12.9489 156.241 12.9489C156.767 12.9489 157.29 13.0104 157.811 13.1335C158.332 13.2566 158.808 13.4602 159.239 13.7443C159.67 14.0237 160.015 14.4048 160.276 14.8878C160.541 15.3707 160.673 15.9744 160.673 16.6989V24H158.202V22.5014H158.116C157.96 22.8045 157.74 23.0885 157.456 23.3537C157.177 23.6141 156.824 23.8248 156.398 23.9858C155.976 24.142 155.482 24.2202 154.913 24.2202ZM155.581 22.331C156.097 22.331 156.545 22.2292 156.923 22.0256C157.302 21.8172 157.593 21.5426 157.797 21.2017C158.005 20.8608 158.109 20.4891 158.109 20.0866V18.8011C158.029 18.8674 157.892 18.929 157.697 18.9858C157.508 19.0426 157.295 19.0923 157.058 19.1349C156.821 19.1776 156.587 19.2154 156.355 19.2486C156.123 19.2817 155.922 19.3101 155.751 19.3338C155.368 19.3859 155.025 19.4711 154.722 19.5895C154.419 19.7079 154.179 19.8736 154.004 20.0866C153.829 20.295 153.741 20.5649 153.741 20.8963C153.741 21.3698 153.914 21.7273 154.26 21.9688C154.606 22.2102 155.046 22.331 155.581 22.331ZM155.368 11.6562L156.959 8.41051H159.473L157.293 11.6562H155.368Z" fill="#232323"/>
</svg>
